<svg width="14" height="19" viewBox="0 0 14 19" fill="none" xmlns="http://www.w3.org/2000/svg">
<path d="M3.21152 3.88989H2.20224C1.75078 3.88989 1.31781 4.07292 0.998585 4.39871C0.679355 4.7245 0.5 5.16638 0.5 5.62712V16.5783C0.5 17.0879 0.698391 17.5767 1.05152 17.9371C1.40465 18.2975 1.88359 18.5 2.383 18.5H10.6682C10.9161 18.501 11.1618 18.452 11.3911 18.3559C11.6204 18.2598 11.8289 18.1184 12.0045 17.9399C12.1802 17.7613 12.3196 17.5491 12.4147 17.3155C12.5098 17.0818 12.5587 16.8313 12.5587 16.5783V5.81929C12.5587 5.30758 12.3595 4.81683 12.005 4.455C11.6504 4.09317 11.1696 3.88989 10.6682 3.88989H9.86979M9.86979 3.88989H9.86227M9.86979 3.88989V4.42796C9.86979 4.61145 9.79836 4.78741 9.67124 4.91715C9.54411 5.04689 9.3717 5.11979 9.19191 5.11979H3.91953C3.82987 5.1208 3.74092 5.10366 3.65781 5.06935C3.57469 5.03504 3.49905 4.98424 3.43531 4.9199C3.37156 4.85555 3.32097 4.77894 3.28643 4.6945C3.25189 4.61006 3.23411 4.51947 3.23411 4.42796V2.8906C3.2361 2.70642 3.30919 2.53047 3.43751 2.40094C3.56584 2.27142 3.73904 2.19878 3.91953 2.19879H4.90978C5.15037 2.19879 5.31528 1.93973 5.31295 1.69915C5.31295 1.38112 5.43674 1.07611 5.65709 0.85123C5.87744 0.626346 6.17631 0.5 6.48793 0.5C6.79956 0.5 7.09843 0.626346 7.31878 0.85123C7.53913 1.07611 7.66292 1.38112 7.66292 1.69915C7.66058 1.93973 7.8255 2.19879 8.06609 2.19879H9.19191C9.3717 2.19879 9.54411 2.27168 9.67124 2.40142C9.79836 2.53117 9.86979 2.70712 9.86979 2.8906V3.88989ZM2.93434 8.53914H7.98077M2.93434 11.7743H7.98077M9.46783 11.7548H9.86979M9.46783 8.53914H9.86979M2.93434 14.99H7.98077M9.46783 14.9705H9.86979" stroke="#E95322" stroke-linecap="round" stroke-linejoin="round"/>
<circle cx="6.5294" cy="2.70591" r="0.401957" fill="#E95322"/>
</svg>
