<svg width="21" height="19" viewBox="0 0 21 19" fill="none" xmlns="http://www.w3.org/2000/svg">
<path d="M17.738 6.24607V14.9556C17.738 15.8956 17.375 16.7971 16.7289 17.4618C16.0828 18.1265 15.2064 18.5 14.2927 18.5H12.8256V15.1889C12.8256 14.5544 12.5806 13.9458 12.1444 13.4971C11.7083 13.0485 11.1168 12.7964 10.5 12.7964C9.88322 12.7964 9.29169 13.0485 8.85556 13.4971C8.41943 13.9458 8.17441 14.5544 8.17441 15.1889V18.5H6.70729C5.79354 18.5 4.91721 18.1265 4.27109 17.4618C3.62497 16.7971 3.26198 15.8956 3.26198 14.9556V6.24609M20.5 9.35542L14.0745 2.12186C13.6209 1.61086 13.0688 1.20268 12.4534 0.923438C11.8379 0.644197 11.1726 0.5 10.5 0.5C9.82736 0.5 9.16209 0.644197 8.54665 0.923438C7.9312 1.20268 7.37907 1.61086 6.92549 2.12186L0.5 9.35542" stroke="#E95322" stroke-linecap="round" stroke-linejoin="round"/>
</svg>
