<svg width="20" height="14" viewBox="0 0 20 14" fill="none" xmlns="http://www.w3.org/2000/svg">
<path d="M17.1832 8.39516C16.7643 6.78266 15.8068 5.35224 14.4618 4.32988C13.1169 3.30752 11.4611 2.75148 9.75614 2.74957M9.75614 2.74957C8.05066 2.7496 6.39395 3.30495 5.04859 4.3276C3.70323 5.35026 2.74616 6.78173 2.32905 8.39516L1.98541 9.85523M9.75614 2.74957C10.1001 2.74957 10.43 2.61625 10.6732 2.37895C10.9164 2.14164 11.0531 1.8198 11.0531 1.4842C11.0531 0.781202 10.4767 0.5 9.75614 0.5C9.0356 0.5 8.45916 0.781202 8.45916 1.4842C8.45916 1.8198 8.5958 2.14164 8.83903 2.37895C9.08226 2.61625 9.41216 2.74957 9.75614 2.74957ZM17.3606 11.8453C17.4515 11.9308 17.5238 12.0332 17.5733 12.1466C17.6228 12.2599 17.6485 12.3818 17.6488 12.505C17.6265 12.7766 17.4999 13.0299 17.2944 13.2144C17.0888 13.3989 16.8195 13.5009 16.5403 13.5H3.45973C3.18047 13.5009 2.91119 13.3989 2.70567 13.2144C2.50016 13.0299 2.37355 12.7766 2.35121 12.505C2.35362 12.2586 2.45281 12.0224 2.62834 11.8453H1.60852C1.32926 11.8461 1.05995 11.7441 0.85443 11.5597C0.648913 11.3752 0.522339 11.1218 0.5 10.8502C0.502706 10.7129 0.533908 10.5776 0.591711 10.4523C0.649514 10.3271 0.7327 10.2146 0.836297 10.1216C0.939894 10.0286 1.06173 9.95707 1.19445 9.91129C1.32717 9.8655 1.46804 9.84645 1.60852 9.85524H18.3139C18.4605 9.83526 18.6097 9.84597 18.7517 9.88666C18.8937 9.92735 19.0252 9.99709 19.1374 10.0912C19.2496 10.1854 19.34 10.3017 19.4025 10.4326C19.4651 10.5635 19.4983 10.7058 19.5 10.8502C19.4777 11.1218 19.3511 11.3752 19.1456 11.5597C18.9401 11.7441 18.6707 11.8461 18.3915 11.8453H17.3606ZM17.3606 11.8453L15.9195 11.8452M2.70567 11.8452H7.528M10.5875 4.53409C10.5875 4.53409 13.514 4.6098 15.1657 8.39516" stroke="#E95322" stroke-linecap="round" stroke-linejoin="round"/>
</svg>
