<svg width="19" height="18" viewBox="0 0 19 18" fill="none" xmlns="http://www.w3.org/2000/svg">
<path d="M9.50414 2.64237C9.50414 2.64237 9.11729 2.9655 8.71705 3.54113M7.86534 6.59764C7.73324 5.29466 8.23486 4.23465 8.71705 3.54113M8.71705 3.54113C9.18138 2.87563 9.75782 2.36046 10.3474 1.96852M10.3474 1.96852C11.3854 1.27846 12.464 0.970371 13.043 0.896319C13.7199 0.869265 14.3953 0.980527 15.0282 1.22333C15.6612 1.46613 16.2385 1.83542 16.7254 2.30892C18.8308 4.38261 19.1399 8.29271 17.2369 10.6009C15.3339 12.9091 12.2138 13.9318 10.294 16.2796C9.98291 16.6531 9.71769 17.0628 9.50406 17.5C9.29141 17.0629 9.02721 16.6532 8.71705 16.2796C6.79436 13.9318 3.69376 12.9317 1.77107 10.6009C-0.151615 8.27011 0.177354 4.38544 2.28275 2.30892C3.41068 0.952839 5.99041 -0.801559 10.3474 1.96852Z" stroke="#E95322" stroke-linecap="round" stroke-linejoin="round"/>
</svg>
