<svg width="18" height="17" viewBox="0 0 18 17" fill="none" xmlns="http://www.w3.org/2000/svg">
<path d="M3.16418 11.9713V6.34785C3.16955 4.79856 3.78579 3.31426 4.87849 2.21874C5.9712 1.12322 7.45166 0.505376 8.99696 0.5C10.5423 0.505376 12.0227 1.12322 13.1154 2.21874C14.2081 3.31426 14.8244 4.79856 14.8298 6.34785V9.74777M6.40613 4.4915C6.66931 4.03584 7.04702 3.65731 7.50161 3.39363C7.9562 3.12996 8.47178 2.99036 8.99696 2.98874C9.52242 2.98899 10.0386 3.128 10.4934 3.39182C10.9482 3.65563 11.3257 4.03492 11.5878 4.4915M14.8298 11.9781V6.27305H14.9654C15.3621 6.2384 15.7612 6.30073 16.1286 6.4547C16.496 6.60866 16.8206 6.84966 17.0747 7.15703C17.3834 7.72001 17.529 8.35825 17.4952 8.99979C17.4963 9.24065 17.4828 9.48137 17.4545 9.72057C17.444 10.0936 17.3502 10.4595 17.18 10.7913C17.0098 11.1232 16.7676 11.4125 16.4711 11.6381C15.9626 11.8922 15.397 12.0094 14.8298 11.9781ZM14.8298 11.9781C14.8298 11.9781 14.979 15.854 9.85154 15.2284M9.85154 15.2284C9.85154 15.9307 9.28371 16.5 8.58325 16.5C7.88279 16.5 7.31496 15.9307 7.31496 15.2284C7.31496 14.5262 7.88279 13.9569 8.58325 13.9569C9.28371 13.9569 9.85154 14.5262 9.85154 15.2284ZM0.919239 7.15704C1.17511 6.85001 1.50104 6.60936 1.8694 6.45548C2.23777 6.3016 2.6377 6.23902 3.03532 6.27306H3.16418V11.9781C2.59917 12.0085 2.03596 11.8914 1.52964 11.6381C1.23315 11.4125 0.990891 11.1232 0.820696 10.7913C0.6505 10.4595 0.556698 10.0936 0.546199 9.72057C0.51796 9.48137 0.504372 9.24066 0.505507 8.99979C0.469251 8.35887 0.61257 7.72057 0.919239 7.15704Z" stroke="#E95322" stroke-linecap="round" stroke-linejoin="round"/>
</svg>
